<?xml version="1.0" encoding="utf-8"?>
<!-- Generator: Adobe Illustrator 24.2.1, SVG Export Plug-In . SVG Version: 6.00 Build 0)  -->
<svg version="1.1" id="Layer_1" xmlns="http://www.w3.org/2000/svg" xmlns:xlink="http://www.w3.org/1999/xlink" x="0px" y="0px"
	 viewBox="0 0 180 180" style="enable-background:new 0 0 180 180;" xml:space="preserve">
<style type="text/css">
	.st0{fill:#FF33FF;}
</style>
<path class="st0" d="M159.8,142.8c-0.3-6-4.1-11.3-9.8-13.5l-32.3-12.4c-1.8-2.1-3.6-4.3-5.3-6.5v-0.1l-0.1-0.1
	c-0.1-0.1-0.1-0.1-0.1-0.2v0.1l-2.6-2.8v-9.8l-0.3,0.1c1-1.6,1.8-3.2,2.2-4.4c0.5-1.8,0.9-3.7,1.3-5.5c0.3,0,0.6,0,1.1-0.1
	c1.8-0.2,3.4-4.4,3.4-4.4s1.5-3.7,2.2-9c0,0,0.5-6.2-1.4-6.8c-0.1-23.3-2.7-25.1-2.7-25.1S105.5,26,90.1,26
	c-15.4,0.1-25.3,16.3-25.3,16.3s-2.6,1.9-2.7,25.1c-2,0.6-1.4,6.8-1.4,6.8c0.7,5.2,2.2,9,2.2,9s1.6,4.1,3.4,4.4
	c0.5,0.1,0.9,0.1,1.1,0.1c0.4,1.8,0.8,3.7,1.3,5.5c0.4,1.3,1.1,2.8,2.2,4.4l-0.3-0.1v9.8l-2.6,2.8V110c-0.1,0.1-0.1,0.1-0.1,0.2
	l-0.1,0.1v0.1c-1.6,2.2-3.4,4.4-5.2,6.5l-32.3,12.5c-5.6,2.2-9.5,7.5-9.8,13.5L18.5,180h52.1h13.3H90h0.1h6.2h13.3h51.9L159.8,142.8
	z"/>
</svg>
