<?xml version="1.0" encoding="utf-8"?>
<!-- Generator: Adobe Illustrator 24.2.1, SVG Export Plug-In . SVG Version: 6.00 Build 0)  -->
<svg version="1.1" id="Layer_1" xmlns="http://www.w3.org/2000/svg" xmlns:xlink="http://www.w3.org/1999/xlink" x="0px" y="0px"
	 viewBox="0 0 250 250" style="enable-background:new 0 0 250 250;" xml:space="preserve">
<style type="text/css">
	.st0{fill:#05AFF2;}
</style>
<path class="st0" d="M222.5,198.4c-0.4-8.4-5.7-15.8-13.6-18.8l-45-17.3c-2.5-2.9-5-6-7.4-9.1l0-0.1l-0.2-0.2
	c-0.1-0.1-0.2-0.2-0.2-0.3c0,0,0,0.1,0,0.1l-3.6-3.9v-13.6l-0.4,0.1c1.4-2.3,2.5-4.4,3.1-6.2c0.7-2.5,1.3-5.2,1.8-7.7
	c0.4,0,0.9,0,1.6-0.1c2.5-0.3,4.7-6.1,4.7-6.1s2.1-5.2,3-12.5c0,0,0.7-8.6-2-9.5c-0.1-32.5-3.7-35-3.7-35s-13.8-22.6-35.3-22.6
	C103.8,35.7,90,58.3,90,58.3s-3.6,2.6-3.7,35c-2.8,0.9-2,9.5-2,9.5c1,7.3,3,12.5,3,12.5s2.2,5.7,4.7,6.1c0.7,0.1,1.2,0.1,1.6,0.1
	c0.5,2.5,1.1,5.2,1.8,7.7c0.5,1.8,1.6,3.9,3,6.2l-0.4-0.1v13.6l-3.6,3.9c0,0,0-0.1,0-0.1c-0.1,0.1-0.2,0.2-0.2,0.3l-0.2,0.2l0,0.1
	c-2.3,3-4.8,6.1-7.3,9l-45.1,17.4c-7.8,3-13.2,10.4-13.6,18.8l-2.5,51.8h72.6h18.5h8.5h0.2h8.6h18.5h72.4L222.5,198.4z"/>
</svg>
